HIERARCHY
ROOT Hips
{
	OFFSET -131.695496 91.669037 -190.067505
	CHANNELS 6 Xposition Yposition Zposition Zrotation Yrotation Xrotation 
	JOINT LeftUpLeg
	{
		OFFSET 0.103456 1.857829 10.548507
		CHANNELS 3 Zrotation Yrotation Xrotation
		JOINT LeftLeg
		{
			OFFSET 43.500000 -0.000031 0.000008
			CHANNELS 3 Zrotation Yrotation Xrotation
			JOINT LeftFoot
			{
				OFFSET 42.372200 0.000015 -0.000002
				CHANNELS 3 Zrotation Yrotation Xrotation
				JOINT LeftToe
				{
					OFFSET 17.299992 -0.000004 0.000000
					CHANNELS 3 Zrotation Yrotation Xrotation
					End Site
					{
						OFFSET 0.000000 0.000000 0.000000
					}
				}
			}
		}
	}
	JOINT RightUpLeg
	{
		OFFSET 0.103460 1.857824 -10.548508
		CHANNELS 3 Zrotation Yrotation Xrotation
		JOINT RightLeg
		{
			OFFSET 43.500042 -0.000019 0.000004
			CHANNELS 3 Zrotation Yrotation Xrotation
			JOINT RightFoot
			{
				OFFSET 42.372265 -0.000019 0.000016
				CHANNELS 3 Zrotation Yrotation Xrotation
				JOINT RightToe
				{
					OFFSET 17.299999 -0.000001 -0.000006
					CHANNELS 3 Zrotation Yrotation Xrotation
					End Site
					{
						OFFSET 0.000000 0.000000 0.000000
					}
				}
			}
		}
	}
	JOINT Spine
	{
		OFFSET 6.901965 -2.603734 0.000001
		CHANNELS 3 Zrotation Yrotation Xrotation
		JOINT Spine1
		{
			OFFSET 12.588102 0.000006 -0.000006
			CHANNELS 3 Zrotation Yrotation Xrotation
			JOINT Spine2
			{
				OFFSET 12.343201 -0.000002 0.000010
				CHANNELS 3 Zrotation Yrotation Xrotation
				JOINT Neck
				{
					OFFSET 25.832899 -0.000004 -0.000009
					CHANNELS 3 Zrotation Yrotation Xrotation
					JOINT Head
					{
						OFFSET 11.766603 0.000001 0.000007
						CHANNELS 3 Zrotation Yrotation Xrotation
						End Site
						{
							OFFSET 0.000000 0.000000 0.000000
						}
					}
				}
				JOINT LeftShoulder
				{
					OFFSET 19.745899 -1.480371 6.000098
					CHANNELS 3 Zrotation Yrotation Xrotation
					JOINT LeftArm
					{
						OFFSET 11.284129 -0.000011 -0.000015
						CHANNELS 3 Zrotation Yrotation Xrotation
						JOINT LeftForeArm
						{
							OFFSET 33.000046 0.000011 0.000030
							CHANNELS 3 Zrotation Yrotation Xrotation
							JOINT LeftHand
							{
								OFFSET 25.200010 0.000012 -0.000000
								CHANNELS 3 Zrotation Yrotation Xrotation
								End Site
								{
									OFFSET 0.000000 0.000000 0.000000
								}
							}
						}
					}
				}
				JOINT RightShoulder
				{
					OFFSET 19.746092 -1.480375 -6.000075
					CHANNELS 3 Zrotation Yrotation Xrotation
					JOINT RightArm
					{
						OFFSET 11.284135 -0.000010 -0.000014
						CHANNELS 3 Zrotation Yrotation Xrotation
						JOINT RightForeArm
						{
							OFFSET 33.000092 0.000016 0.000013
							CHANNELS 3 Zrotation Yrotation Xrotation
							JOINT RightHand
							{
								OFFSET 25.199780 0.000135 0.000426
								CHANNELS 3 Zrotation Yrotation Xrotation
								End Site
								{
									OFFSET 0.000000 0.000000 0.000000
								}
							}
						}
					}
				}
			}
		}
	}
}
MOTION
Frames: 11
Frame Time: 0.033333
-22.542471 83.315666 -205.501404 90.885803 2.402600 106.042170 140.270803 -5.415207 -174.846327 -40.397096 -3.142213 2.138767 71.842785 -3.296188 -5.847193 21.454551 0.003091 -0.000000 -161.485001 2.320993 178.695767 -21.640601 6.308574 1.641260 97.143581 -1.580823 -3.495397 21.454553 -0.003128 -0.000020 9.919729 -0.895060 4.098238 9.752804 -2.132466 8.107544 9.437960 -2.083494 8.120170 -6.329252 -21.314874 -15.536503 -19.946087 21.368698 -29.205042 111.925183 -87.095792 66.598081 9.507183 20.723100 56.017325 -72.073672 -8.892726 2.154050 0.776313 -2.592942 37.342710 19.397946 86.561050 -158.875009 -53.814193 2.471843 -15.311799 -73.523216 14.889341 -2.667522 -10.620642 -2.623645 -45.414081 
-20.694950 82.023453 -202.031998 92.228290 2.689584 107.898377 143.042739 -4.293099 -179.556056 -41.896640 -2.609959 5.993593 69.143494 -5.124521 -2.530263 21.454550 0.003092 -0.000002 -159.487827 3.589795 -177.217960 -25.208818 5.654030 0.180759 97.311440 -0.541506 -2.903402 21.454557 -0.003113 -0.000016 9.619708 -1.263049 3.946358 9.133038 -2.833548 7.782849 8.817732 -2.786511 7.799679 -2.944106 -19.121753 -16.811776 -21.534253 20.649076 -29.581799 145.582176 -87.893640 32.820049 10.133959 20.209457 51.779384 -73.604734 -8.826624 2.212787 0.768725 -2.660240 37.728169 -3.125956 88.253141 178.655045 -53.531570 -4.383398 -6.441551 -74.771563 15.133898 -2.738125 -10.199570 -3.369787 -50.248947 
-19.131620 80.841476 -198.761200 92.718076 2.467896 110.608896 141.023531 -4.372403 176.266897 -49.384863 -2.420523 8.886959 72.232167 -5.697874 1.813120 21.454550 0.003086 -0.000003 -162.387187 2.943097 -170.905581 -36.014382 1.441964 -1.229135 92.704798 0.506265 -1.964814 21.454567 -0.003100 -0.000018 9.445329 -1.467805 3.480085 8.785715 -3.195423 6.841167 8.469570 -3.154006 6.860228 -1.093613 -19.940051 -17.231302 -22.160982 23.185362 -31.116160 -165.202933 -84.897728 -16.558940 9.450940 22.109056 43.373337 -73.247666 -8.724059 2.190848 1.919026 -4.515239 30.368790 130.827219 88.558156 -47.593656 -50.084158 -15.070876 8.648905 -81.254738 11.275538 -2.748624 -10.304662 0.210229 -45.097290 
-17.468920 80.141457 -195.809692 95.557960 2.776778 112.701475 142.782086 -1.673997 174.322574 -52.739989 -1.978167 9.799405 75.254703 -6.064696 2.837139 21.454555 0.003108 0.000002 -167.695802 5.671906 -167.522574 -52.449839 -1.408132 -0.640916 82.596849 0.577281 0.460650 21.454551 -0.003108 -0.000022 10.133087 -2.125564 3.159345 10.140154 -4.519762 6.124560 9.822974 -4.482633 6.151651 -2.431406 -22.876592 -17.478196 -21.423486 25.386471 -32.862557 -164.882857 -80.453645 -16.911043 6.914431 26.179454 31.654696 -73.733682 -8.587161 2.201569 3.902175 -6.914787 20.077481 160.591995 83.735654 -17.999097 -45.419102 -25.697649 20.876622 -90.322961 4.805350 -2.697239 -9.770207 7.410264 -30.884831 
-15.559590 80.083611 -192.750702 97.546740 2.554943 112.756226 144.930508 0.844699 174.181012 -54.595495 -1.841736 8.954978 78.727697 -5.542986 2.711137 21.454550 0.003100 0.000001 -176.148898 9.281494 -169.284531 -71.046678 -1.903010 0.946816 74.030091 0.705732 4.219796 21.454551 -0.003119 -0.000014 10.593049 -2.694753 3.252302 11.031474 -5.687295 6.239668 10.713750 -5.649442 6.273823 -3.515540 -25.577621 -17.517859 -20.507110 26.194098 -33.711522 -170.279772 -76.694903 -11.427017 3.259127 32.291294 20.283966 -74.580051 -9.024556 2.267166 4.040123 -8.323235 14.331716 161.449949 81.209064 -17.245956 -40.620716 -38.495045 25.892084 -97.263328 1.492868 -2.776422 -9.688239 12.518584 -18.321525 
-13.878120 80.096619 -189.716202 98.224425 2.977987 112.759579 147.066622 2.852005 176.930299 -56.379896 -2.256753 7.128015 82.390393 -4.463156 1.967095 21.454550 0.003084 -0.000001 174.685599 10.392809 -170.872004 -86.915858 -3.172404 3.046160 72.187730 -0.733938 3.999455 21.454560 -0.003111 -0.000018 11.003072 -2.918018 3.222027 11.845015 -6.150570 6.136065 11.526946 -6.113336 6.173038 -3.041665 -26.534949 -17.415702 -21.880723 26.677256 -34.338544 -171.813477 -73.787094 -9.848986 -2.781564 38.349992 9.805476 -75.310096 -9.442666 2.326779 3.377356 -9.918106 15.471572 165.987052 79.278477 -12.727052 -36.122736 -49.322599 24.159578 -98.719709 0.834926 -2.795717 -9.570950 13.091132 -15.167224 
-12.430740 80.491463 -186.697601 98.873634 3.463225 113.789790 150.081290 4.744393 179.840179 -56.527312 -2.879880 5.909994 85.038942 -3.661775 1.755852 21.454550 0.003087 -0.000000 166.178011 11.664792 -170.931672 -98.752808 -4.132826 4.687516 75.428511 -2.102798 3.526608 21.454555 -0.003109 -0.000028 11.412222 -3.107205 2.774162 12.683920 -6.499783 5.197986 12.365042 -6.468180 5.237162 -2.321974 -25.693170 -17.399651 -24.451473 26.997904 -34.966791 -171.961323 -72.035437 -9.688952 -11.429041 42.081861 1.662741 -74.393252 -10.061097 2.331174 2.889975 -12.176487 16.226159 173.572046 76.249199 -5.104972 -30.727303 -57.067559 18.314176 -94.940278 1.849837 -2.697269 -11.011890 10.492881 -24.927740 
-11.425960 81.718628 -183.856094 98.156758 3.343581 114.520204 153.068364 4.269608 -179.570810 -54.462296 -2.815884 6.311936 86.244532 -3.876191 2.137655 21.454551 0.003096 0.000002 156.648162 11.649005 -171.227870 -105.469015 -4.568965 6.346248 75.357450 -3.206129 3.726813 21.454555 -0.003102 -0.000019 11.510743 -3.036580 2.247719 12.913542 -6.304998 4.147564 12.594286 -6.279735 4.185624 -2.510777 -25.340589 -17.345294 -26.462969 27.320591 -35.691895 -174.245598 -71.323369 -7.333989 -20.599883 43.836291 -4.080297 -70.856888 -11.290381 2.269716 3.879657 -13.645100 15.715565 178.505000 73.337182 -0.126955 -23.796657 -61.527471 6.715820 -85.959290 7.297716 -2.677396 -14.537518 8.858918 -39.514936 
-10.489150 83.870247 -181.037399 96.674279 2.479598 114.951483 156.563276 3.118006 -179.064132 -49.323651 -2.861914 6.769271 86.008126 -4.145898 2.363772 21.454553 0.003083 0.000000 147.463566 11.093098 -171.598585 -106.194695 -4.624095 6.828439 75.034607 -3.727751 3.120482 21.454562 -0.003105 -0.000022 11.279573 -2.777801 1.484569 12.495222 -5.699604 2.662922 12.175802 -5.683290 2.697370 -4.693182 -25.931590 -16.193197 -26.405762 27.446886 -35.158474 -175.545765 -72.765195 -6.010995 -29.771968 45.050910 -5.862281 -63.810769 -13.885704 2.167196 5.820112 -15.345517 13.845736 178.572017 71.769702 -0.089005 -16.079052 -63.660095 -7.237989 -72.015336 13.990621 -2.540926 -15.245112 13.847350 -36.767462 
-9.409739 86.653641 -178.121704 95.435884 1.756631 114.804196 162.019327 2.564106 -178.444061 -40.706322 -2.205524 6.458755 84.194991 -4.119797 1.462765 21.454555 0.003097 0.000001 140.616028 10.424293 -172.839002 -101.500709 -4.175357 6.128348 73.891753 -3.283515 3.001549 21.454555 -0.003102 -0.000019 10.900852 -2.430554 0.707894 11.774593 -4.920476 1.165355 11.455291 -4.913203 1.195122 -6.749257 -26.755282 -14.665675 -25.732760 27.602888 -34.119520 -178.612985 -75.224165 -2.897951 -37.325047 44.435056 -2.444726 -54.047499 -15.504497 1.918979 9.097281 -15.325249 11.040369 179.781972 71.836597 1.156988 -11.901077 -64.097917 -18.138093 -53.622719 17.735382 -2.085259 -10.784952 22.593972 -23.011327 
-8.201004 89.479660 -174.914993 93.369465 1.409333 113.855401 168.688583 2.015599 -174.338120 -30.043796 -1.520564 3.635188 81.650882 -2.463225 0.130672 21.454551 0.003089 -0.000002 136.847990 8.056595 -173.908924 -92.097028 -3.403860 4.990746 73.838464 -2.645938 2.596267 21.454557 -0.003118 -0.000016 10.285105 -1.851576 0.052366 10.563899 -3.700164 -0.064737 10.245086 -3.700356 -0.042352 -9.448790 -25.852008 -12.943648 -23.334160 26.892639 -31.657753 175.460880 -77.792849 3.099971 -41.601572 42.766417 5.226342 -45.942926 -14.325883 1.579858 11.023259 -11.203365 13.809574 -178.730956 71.226900 2.676031 -7.755886 -62.006015 -24.493330 -36.683109 16.442197 -1.495279 -0.485114 26.341164 -3.897526 
